<svg xmlns="http://www.w3.org/2000/svg" width="256" height="2048" viewBox="0 0 256 2048">
<g transform="translate(0 0) translate(128 128) scale(0.72) translate(-128 -128)"><ellipse cx="78" cy="100" rx="12" ry="19" fill="#f6f0e9" stroke="#291b25" stroke-width="5.89"/><ellipse cx="78" cy="102" rx="7" ry="11" fill="#291b25"/><circle cx="75" cy="95" r="3" fill="white"/><ellipse cx="178" cy="100" rx="12" ry="19" fill="#f6f0e9" stroke="#291b25" stroke-width="5.89"/><ellipse cx="178" cy="102" rx="7" ry="11" fill="#291b25"/><circle cx="175" cy="95" r="3" fill="white"/></g>
<g transform="translate(0 256) translate(128 128) scale(0.72) translate(-128 -128)"><path d="M58 104 Q80 112 99 102 M157 102 Q177 112 198 104" stroke="#291b25" stroke-width="5.89" stroke-linecap="round" stroke-linejoin="round" fill="none"/></g>
<g transform="translate(0 512) translate(128 128) scale(0.72) translate(-128 -128)"><path d="M58 104 Q80 112 99 102 M157 102 Q177 112 198 104" stroke="#291b25" stroke-width="8.25" stroke-linecap="round" stroke-linejoin="round" fill="none"/></g>
<g transform="translate(0 768) translate(128 128) scale(0.72) translate(-128 -128)"><path d="M56 91 L100 102 M156 102 L200 91" stroke="#291b25" stroke-width="10.61" stroke-linecap="round" stroke-linejoin="round" fill="none"/><path d="M66 101 Q78 112 94 104 M162 104 Q178 112 190 101" stroke="#291b25" stroke-width="4.71" stroke-linecap="round" stroke-linejoin="round" fill="none"/></g>
<g transform="translate(0 1024) translate(128 128) scale(0.72) translate(-128 -128)"><path d="M58 102 Q72 84 99 100 M157 100 Q184 84 198 102" stroke="#291b25" stroke-width="5.89" stroke-linecap="round" stroke-linejoin="round" fill="none"/></g>
<g transform="translate(0 1280) translate(128 128) scale(0.72) translate(-128 -128)"><ellipse cx="78" cy="100" rx="16" ry="23" fill="#f6f0e9" stroke="#291b25" stroke-width="5.89"/><ellipse cx="78" cy="102" rx="7" ry="11" fill="#291b25"/><circle cx="75" cy="95" r="3" fill="white"/><ellipse cx="178" cy="100" rx="16" ry="23" fill="#f6f0e9" stroke="#291b25" stroke-width="5.89"/><ellipse cx="178" cy="102" rx="7" ry="11" fill="#291b25"/><circle cx="175" cy="95" r="3" fill="white"/></g>
<g transform="translate(0 1536) translate(128 128) scale(0.72) translate(-128 -128)"><path d="M59 96 Q78 105 98 96 M158 96 Q178 105 197 96" stroke="#291b25" stroke-width="8.25" stroke-linecap="round" stroke-linejoin="round" fill="none"/></g>
<g transform="translate(0 1792) translate(128 128) scale(0.72) translate(-128 -128)"><path d="M58 108 Q78 83 99 108 M157 108 Q177 83 198 108" stroke="#291b25" stroke-width="5.89" stroke-linecap="round" stroke-linejoin="round" fill="none"/></g>
</svg>
